<?xml version="1.0" encoding="iso-8859-1"?>
<!-- Generator: Adobe Illustrator 19.0.0, SVG Export Plug-In . SVG Version: 6.00 Build 0)  -->
<svg version="1.1" id="Layer_1" xmlns="http://www.w3.org/2000/svg" xmlns:xlink="http://www.w3.org/1999/xlink" x="0px" y="0px"
	 viewBox="0 0 392.541 392.541" style="enable-background:new 0 0 392.541 392.541;" xml:space="preserve">
<path style="fill:#FFFFFF;" d="M333.898,216.477h-15.515c-5.948,0-10.796-4.848-10.796-10.796c0-5.947,4.848-10.796,10.796-10.796
	h15.515c-5.236-67.491-59.281-121.471-126.707-126.707v15.515c0,5.947-4.848,10.796-10.796,10.796s-10.796-4.848-10.796-10.796
	v-15.58C118.108,73.349,64.128,127.394,58.892,194.82h15.515c5.947,0,10.796,4.848,10.796,10.796
	c0,5.947-4.848,10.796-10.796,10.796H58.698c5.236,67.491,59.281,121.471,126.707,126.707v-15.451
	c0-5.947,4.848-10.796,10.796-10.796c5.947,0,10.796,4.848,10.796,10.796v15.515C274.617,337.947,328.532,283.903,333.898,216.477z"
	/>
<path style="fill:#FFC10D;" d="M196.266,321.98c-64.129,0-116.364-52.17-116.364-116.364c0-64.129,52.17-116.364,116.364-116.364
	s116.364,52.234,116.364,116.364C312.629,269.81,260.46,321.98,196.266,321.98z"/>
<g>
	<path style="fill:#194F82;" d="M112.161,44.452c10.667-10.667,7.176-26.505-3.556-33.552c-25.923-16.485-58.57-13.123-78.481,2.78
		L23.013,6.57c-4.331-4.267-11.119-4.267-15.386,0s-4.267,11.119,0,15.321l6.982,6.982C-2.005,51.757-3.492,83.24,11.959,107.612
		c6.723,11.055,23.079,13.834,33.616,3.556L112.161,44.452z M30.06,95.846L30.06,95.846c-11.83-18.747-9.051-44.024,6.853-59.992
		c18.941-16.614,39.046-18.23,60.121-6.723L30.06,95.846z"/>
	<path style="fill:#194F82;" d="M377.922,28.873l6.982-6.982c4.267-4.267,4.267-11.119,0-15.321c-4.267-4.267-11.119-4.267-15.321,0
		l-7.111,7.111c-20.04-15.903-52.622-19.329-78.61-2.844c-10.667,7.111-14.158,22.95-3.556,33.552l66.715,66.715
		c10.408,10.343,26.893,7.499,33.616-3.556C396.023,83.24,394.536,51.757,377.922,28.873z M362.472,95.846L362.472,95.846
		L295.498,29.26c21.075-11.572,41.18-9.891,60.121,6.723C371.522,51.822,374.302,77.099,362.472,95.846z"/>
</g>
<g>
	<path style="fill:#56ACE0;" d="M30.06,95.846L30.06,95.846L97.033,29.26c-21.075-11.572-41.18-9.891-60.121,6.723
		C21.009,51.822,18.229,77.099,30.06,95.846z"/>
	<path style="fill:#56ACE0;" d="M295.498,29.196l66.974,66.586l0,0c11.83-18.747,8.986-44.024-6.853-59.992
		C336.678,19.305,316.573,17.624,295.498,29.196z"/>
</g>
<g>
	<path style="fill:#194F82;" d="M196.266,116.145c-5.947,0-10.796,4.848-10.796,10.796v67.749h-36.396
		c-5.947,0-10.796,4.848-10.796,10.796s4.848,10.796,10.796,10.796h47.192c5.947,0,10.796-4.848,10.796-10.796v-78.481
		C207.191,121.058,202.278,116.145,196.266,116.145z"/>
	<path style="fill:#194F82;" d="M356.007,205.681c0-88.113-71.628-159.741-159.741-159.741S36.524,117.568,36.524,205.681
		c0,59.281,32.453,111.063,80.549,138.602L87.143,374.02c-4.267,4.267-4.267,11.119,0,15.321c4.267,4.267,11.055,4.267,15.321,0
		l35.362-35.232c18.166,7.176,37.883,11.119,58.505,11.119s40.339-4.008,58.505-11.119l35.362,35.232
		c4.267,4.267,11.119,4.267,15.321,0c4.267-4.267,4.267-11.119,0-15.321l-29.931-29.802
		C323.555,316.679,356.007,264.897,356.007,205.681z M207.191,343.184v-15.515c0-5.947-4.848-10.796-10.796-10.796
		c-5.947,0-10.796,4.848-10.796,10.796v15.515c-67.491-5.236-121.471-59.281-126.707-126.707h15.515
		c5.947,0,10.796-4.848,10.796-10.796c0-5.947-4.848-10.796-10.796-10.796H58.698c5.236-67.491,59.281-121.471,126.707-126.707
		v15.515c0,5.947,4.848,10.796,10.796,10.796c5.947,0,10.796-4.848,10.796-10.796v-15.58
		c67.491,5.236,121.471,59.281,126.707,126.707h-15.515c-5.947,0-10.796,4.848-10.796,10.796c0,5.947,4.848,10.796,10.796,10.796
		h15.515C328.532,283.903,274.617,337.947,207.191,343.184z"/>
</g>
<g>
</g>
<g>
</g>
<g>
</g>
<g>
</g>
<g>
</g>
<g>
</g>
<g>
</g>
<g>
</g>
<g>
</g>
<g>
</g>
<g>
</g>
<g>
</g>
<g>
</g>
<g>
</g>
<g>
</g>
</svg>
